<?xml version="1.0" encoding="UTF-8"?>
<!DOCTYPE svg PUBLIC "-//W3C//DTD SVG 1.1//EN" "http://www.w3.org/Graphics/SVG/1.1/DTD/svg11.dtd">
<svg xmlns="http://www.w3.org/2000/svg" version="1.1" width="334px" height="137px" style="shape-rendering:geometricPrecision; text-rendering:geometricPrecision; image-rendering:optimizeQuality; fill-rule:evenodd; clip-rule:evenodd" xmlns:xlink="http://www.w3.org/1999/xlink">
<g><path style="opacity:1" fill="#fdfdfd" d="M -0.5,-0.5 C 110.833,-0.5 222.167,-0.5 333.5,-0.5C 333.5,45.1667 333.5,90.8333 333.5,136.5C 222.167,136.5 110.833,136.5 -0.5,136.5C -0.5,90.8333 -0.5,45.1667 -0.5,-0.5 Z"/></g>
<g><path style="opacity:1" fill="#258445" d="M 73.5,5.5 C 70.3508,5.21138 67.3508,5.71138 64.5,7C 67.3647,7.1829 70.0314,7.6829 72.5,8.5C 49.3329,7.08935 30.6662,15.4227 16.5,33.5C 16.631,32.7611 16.4643,32.0944 16,31.5C 15.2917,32.3805 14.4584,33.0472 13.5,33.5C 27.8532,12.0497 47.8532,2.71632 73.5,5.5 Z"/></g>
<g><path style="opacity:1" fill="#15682d" d="M 73.5,5.5 C 97.5535,8.78183 114.72,21.4485 125,43.5C 126.893,48.0068 128.059,52.6734 128.5,57.5C 127.963,63.6496 127.296,69.6496 126.5,75.5C 127.763,46.8421 115.763,26.0087 90.5,13C 84.6766,10.8019 78.6766,9.30189 72.5,8.5C 70.0314,7.6829 67.3647,7.1829 64.5,7C 67.3508,5.71138 70.3508,5.21138 73.5,5.5 Z"/></g>
<g><path style="opacity:1" fill="#202020" d="M 171.5,36.5 C 165.858,44.4819 160.192,52.4819 154.5,60.5C 160.167,61.1667 165.833,61.8333 171.5,62.5C 164.5,63.8333 157.5,63.8333 150.5,62.5C 155.944,54.5875 161.61,46.9209 167.5,39.5C 168.043,39.44 168.376,39.1067 168.5,38.5C 162.862,37.6701 157.196,37.1701 151.5,37C 158.158,36.5004 164.825,36.3337 171.5,36.5 Z"/></g>
<g><path style="opacity:1" fill="#9c9c9c" d="M 171.5,36.5 C 164.825,36.3337 158.158,36.5004 151.5,37C 157.196,37.1701 162.862,37.6701 168.5,38.5C 168.376,39.1067 168.043,39.44 167.5,39.5C 162.025,38.5111 156.358,38.1778 150.5,38.5C 150.5,37.5 150.5,36.5 150.5,35.5C 157.687,35.1755 164.687,35.5088 171.5,36.5 Z"/></g>
<g><path style="opacity:1" fill="#e1f0e8" d="M 72.5,8.5 C 78.6766,9.30189 84.6766,10.8019 90.5,13C 115.763,26.0087 127.763,46.8421 126.5,75.5C 123.362,91.1079 116.028,104.441 104.5,115.5C 77.0604,133.851 50.3938,132.685 24.5,112C 6.40316,91.9319 1.90316,69.0986 11,43.5C 13.1118,40.2729 14.9451,36.9396 16.5,33.5C 30.6662,15.4227 49.3329,7.08935 72.5,8.5 Z"/></g>
<g><path style="opacity:1" fill="#f8fbf9" d="M 72.5,67.5 C 69.3226,71.1382 67.4892,75.4715 67,80.5C 66.6667,86.1667 66.3333,91.8333 66,97.5C 65.5831,96.244 64.7498,95.5774 63.5,95.5C 62.0834,92.331 60.4168,89.331 58.5,86.5C 57.2466,80.5631 56.2466,74.5631 55.5,68.5C 55.8357,65.1587 56.1691,61.8254 56.5,58.5C 57.9522,52.5792 60.2856,46.9125 63.5,41.5C 65.1733,40.657 66.34,39.3237 67,37.5C 72.3313,43.1609 75.8313,49.8276 77.5,57.5C 75.8147,60.844 74.148,64.1773 72.5,67.5 Z"/></g>
<g><path style="opacity:1" fill="#249054" d="M 42.5,16.5 C 41.7341,19.312 43.0674,21.1453 46.5,22C 46.1667,22.3333 45.8333,22.6667 45.5,23C 49.6181,26.9638 53.9514,30.6305 58.5,34C 58.1667,34.3333 57.8333,34.6667 57.5,35C 58.9743,36.3161 60.641,37.3161 62.5,38C 62.1667,38.3333 61.8333,38.6667 61.5,39C 62.756,39.4169 63.4226,40.2502 63.5,41.5C 60.2856,46.9125 57.9522,52.5792 56.5,58.5C 54.6974,54.0408 51.3641,51.3741 46.5,50.5C 40.15,42.83 33.15,35.83 25.5,29.5C 26.1925,28.4822 26.8592,27.4822 27.5,26.5C 31.4352,21.5641 36.4352,18.2307 42.5,16.5 Z"/></g>
<g><path style="opacity:1" fill="#1d7744" d="M 73.5,11.5 C 101.817,16.4836 118.484,33.1503 123.5,61.5C 122.698,62.9516 122.198,64.6183 122,66.5C 120.195,64.6805 118.028,63.5138 115.5,63C 116.167,62.6667 116.833,62.3333 117.5,62C 115.774,60.4702 113.774,59.4702 111.5,59C 112.167,58.6667 112.833,58.3333 113.5,58C 111.774,56.4702 109.774,55.4702 107.5,55C 108.167,54.6667 108.833,54.3333 109.5,54C 107.774,52.4702 105.774,51.4702 103.5,51C 104.167,50.6667 104.833,50.3333 105.5,50C 103.774,48.4702 101.774,47.4702 99.5,47C 100.167,46.6667 100.833,46.3333 101.5,46C 99.7738,44.4702 97.7738,43.4702 95.5,43C 96.1667,42.6667 96.8333,42.3333 97.5,42C 95.7738,40.4702 93.7738,39.4702 91.5,39C 92.1667,38.6667 92.8333,38.3333 93.5,38C 91.7738,36.4702 89.7738,35.4702 87.5,35C 88.1667,34.6667 88.8333,34.3333 89.5,34C 87.7738,32.4702 85.7738,31.4702 83.5,31C 84.1667,30.6667 84.8333,30.3333 85.5,30C 83.7738,28.4702 81.7738,27.4702 79.5,27C 81.9913,26.3741 81.9913,25.5407 79.5,24.5C 78.2713,23.7189 76.938,23.2189 75.5,23C 76.1667,22.6667 76.8333,22.3333 77.5,22C 75.7738,20.4702 73.7738,19.4702 71.5,19C 72.1667,18.6667 72.8333,18.3333 73.5,18C 71.7738,16.4702 69.7738,15.4702 67.5,15C 69.9913,14.3741 69.9913,13.5407 67.5,12.5C 69.396,11.5344 71.396,11.2011 73.5,11.5 Z"/></g>
<g><path style="opacity:1" fill="#21824b" d="M 73.5,11.5 C 71.396,11.2011 69.396,11.5344 67.5,12.5C 69.9913,13.5407 69.9913,14.3741 67.5,15C 69.7738,15.4702 71.7738,16.4702 73.5,18C 72.8333,18.3333 72.1667,18.6667 71.5,19C 73.7738,19.4702 75.7738,20.4702 77.5,22C 76.8333,22.3333 76.1667,22.6667 75.5,23C 76.938,23.2189 78.2713,23.7189 79.5,24.5C 81.9913,25.5407 81.9913,26.3741 79.5,27C 81.7738,27.4702 83.7738,28.4702 85.5,30C 84.8333,30.3333 84.1667,30.6667 83.5,31C 85.7738,31.4702 87.7738,32.4702 89.5,34C 88.8333,34.3333 88.1667,34.6667 87.5,35C 89.7738,35.4702 91.7738,36.4702 93.5,38C 92.8333,38.3333 92.1667,38.6667 91.5,39C 93.7738,39.4702 95.7738,40.4702 97.5,42C 96.8333,42.3333 96.1667,42.6667 95.5,43C 97.7738,43.4702 99.7738,44.4702 101.5,46C 100.833,46.3333 100.167,46.6667 99.5,47C 101.774,47.4702 103.774,48.4702 105.5,50C 104.833,50.3333 104.167,50.6667 103.5,51C 105.774,51.4702 107.774,52.4702 109.5,54C 108.833,54.3333 108.167,54.6667 107.5,55C 109.774,55.4702 111.774,56.4702 113.5,58C 112.833,58.3333 112.167,58.6667 111.5,59C 113.774,59.4702 115.774,60.4702 117.5,62C 116.833,62.3333 116.167,62.6667 115.5,63C 118.028,63.5138 120.195,64.6805 122,66.5C 122.198,64.6183 122.698,62.9516 123.5,61.5C 124.636,72.1166 122.969,82.1166 118.5,91.5C 116.801,91.6602 115.134,91.4935 113.5,91C 113.833,90.6667 114.167,90.3333 114.5,90C 112.641,89.3161 110.974,88.3161 109.5,87C 109.833,86.6667 110.167,86.3333 110.5,86C 108.641,85.3161 106.974,84.3161 105.5,83C 105.833,82.6667 106.167,82.3333 106.5,82C 103.834,79.0957 100.501,76.2624 96.5,73.5C 98.5427,66.0382 98.8761,58.5382 97.5,51C 86.6715,52.32 78.6715,57.82 73.5,67.5C 73.1667,67.5 72.8333,67.5 72.5,67.5C 74.148,64.1773 75.8147,60.844 77.5,57.5C 75.8313,49.8276 72.3313,43.1609 67,37.5C 66.34,39.3237 65.1733,40.657 63.5,41.5C 63.4226,40.2502 62.756,39.4169 61.5,39C 61.8333,38.6667 62.1667,38.3333 62.5,38C 60.641,37.3161 58.9743,36.3161 57.5,35C 57.8333,34.6667 58.1667,34.3333 58.5,34C 53.9514,30.6305 49.6181,26.9638 45.5,23C 45.8333,22.6667 46.1667,22.3333 46.5,22C 43.0674,21.1453 41.7341,19.312 42.5,16.5C 52.1756,10.832 62.5089,9.16531 73.5,11.5 Z"/></g>
<g><path style="opacity:1" fill="#262626" d="M 182.5,35.5 C 197.347,34.8662 202.847,41.8662 199,56.5C 195.235,62.7603 189.735,64.9269 182.5,63C 174.127,57.1986 172.293,49.6986 177,40.5C 178.812,38.6997 180.645,37.0331 182.5,35.5 Z"/></g>
<g><path style="opacity:1" fill="#f8f8f8" d="M 183.5,37.5 C 189.59,36.1372 194.09,38.1372 197,43.5C 198.591,50.2511 197.091,56.0844 192.5,61C 187.525,62.2263 183.025,61.393 179,58.5C 177.494,53.2545 177.161,47.9212 178,42.5C 179.73,40.5981 181.563,38.9314 183.5,37.5 Z"/></g>
<g><path style="opacity:1" fill="#f9fcfa" d="M 58.5,86.5 C 58.8838,90.2725 60.5505,93.2725 63.5,95.5C 63.4142,96.4959 63.7476,97.3292 64.5,98C 61.7393,98.1448 59.0726,97.6448 56.5,96.5C 46.4116,90.7118 39.9116,82.0452 37,70.5C 35.8924,66.9137 35.3924,63.247 35.5,59.5C 35.5,56.5 35.5,53.5 35.5,50.5C 42.5523,50.5719 48.719,52.9052 54,57.5C 54.3333,64.1667 54.6667,70.8333 55,77.5C 55.5053,80.865 56.672,83.865 58.5,86.5 Z"/></g>
<g><path style="opacity:1" fill="#fafcfb" d="M 96.5,73.5 C 93.217,82.7604 87.5503,90.0937 79.5,95.5C 76.2627,96.7494 72.9294,97.7494 69.5,98.5C 68.7189,97.2713 68.2189,95.938 68,94.5C 67.1554,84.8796 68.9888,75.8796 73.5,67.5C 78.6715,57.82 86.6715,52.32 97.5,51C 98.8761,58.5382 98.5427,66.0382 96.5,73.5 Z"/></g>
<g><path style="opacity:1" fill="#289d5a" d="M 27.5,26.5 C 26.8592,27.4822 26.1925,28.4822 25.5,29.5C 33.15,35.83 40.15,42.83 46.5,50.5C 51.3641,51.3741 54.6974,54.0408 56.5,58.5C 56.1691,61.8254 55.8357,65.1587 55.5,68.5C 56.2466,74.5631 57.2466,80.5631 58.5,86.5C 56.672,83.865 55.5053,80.865 55,77.5C 54.6667,70.8333 54.3333,64.1667 54,57.5C 48.719,52.9052 42.5523,50.5719 35.5,50.5C 35.5,53.5 35.5,56.5 35.5,59.5C 34.6829,61.9686 34.1829,64.6353 34,67.5C 27.5559,59.8832 20.3893,53.2166 12.5,47.5C 15.6576,39.0359 20.6576,32.0359 27.5,26.5 Z"/></g>
<g><path style="opacity:1" fill="#282828" d="M 213.5,35.5 C 226.561,35.0689 232.061,41.4023 230,54.5C 228.629,57.8801 226.462,60.7134 223.5,63C 208.699,64.8577 202.866,58.3577 206,43.5C 207.38,39.6247 209.88,36.958 213.5,35.5 Z"/></g>
<g><path style="opacity:1" fill="#f9f9f9" d="M 214.5,37.5 C 226.049,37.5647 230.216,43.2314 227,54.5C 226.608,57.455 225.108,59.6217 222.5,61C 217.16,62.534 212.66,61.3674 209,57.5C 207.524,52.9241 207.19,48.2574 208,43.5C 209.494,40.6865 211.66,38.6865 214.5,37.5 Z"/></g>
<g><path style="opacity:1" fill="#8e8e8e" d="M 150.5,74.5 C 158.984,73.507 167.651,73.1736 176.5,73.5C 176.5,75.1667 176.5,76.8333 176.5,78.5C 173.167,78.5 169.833,78.5 166.5,78.5C 166.825,86.3516 166.492,94.0182 165.5,101.5C 165.5,93.5 165.5,85.5 165.5,77.5C 168.833,77.5 172.167,77.5 175.5,77.5C 175.5,76.5 175.5,75.5 175.5,74.5C 167.167,74.5 158.833,74.5 150.5,74.5 Z"/></g>
<g><path style="opacity:1" fill="#2e2e2e" d="M 186.5,73.5 C 203.438,73.6874 208.604,81.6874 202,97.5C 195.529,102.209 188.696,102.709 181.5,99C 175.26,91.9368 174.927,84.6035 180.5,77C 182.727,76.059 184.727,74.8923 186.5,73.5 Z"/></g>
<g><path style="opacity:1" fill="#b9b9b9" d="M 210.5,74.5 C 212.265,73.5386 214.265,73.2053 216.5,73.5C 216.5,80.1667 216.5,86.8333 216.5,93.5C 215.51,87.3554 215.177,81.0221 215.5,74.5C 213.833,74.5 212.167,74.5 210.5,74.5 Z"/></g>
<g><path style="opacity:1" fill="#2a2a2a" d="M 243.5,73.5 C 248.552,73.4502 253.552,73.9502 258.5,75C 259.931,75.4652 261.097,76.2986 262,77.5C 263.753,83.0939 262.253,87.4273 257.5,90.5C 259.975,94.1421 262.642,97.6421 265.5,101C 263.5,101.667 261.5,101.667 259.5,101C 256.833,97.6667 254.167,94.3333 251.5,91C 249.866,90.5065 248.199,90.3398 246.5,90.5C 246.5,94.1667 246.5,97.8333 246.5,101.5C 244.833,101.5 243.167,101.5 241.5,101.5C 240.903,91.9034 241.569,82.5701 243.5,73.5 Z"/></g>
<g><path style="opacity:1" fill="#2e2e2e" d="M 286.5,73.5 C 290.767,73.203 294.934,73.5363 299,74.5C 299.781,75.9437 299.614,77.277 298.5,78.5C 295.227,77.4149 291.894,77.2483 288.5,78C 285.527,79.2242 284.86,81.2242 286.5,84C 291.594,85.026 296.094,87.1927 300,90.5C 300.681,98.8749 296.681,102.542 288,101.5C 285.833,101.333 283.667,101.167 281.5,101C 280.62,99.6439 280.286,98.1439 280.5,96.5C 284.796,97.4625 289.129,97.6292 293.5,97C 296.167,95 296.167,93 293.5,91C 288.678,90.5142 284.511,88.6809 281,85.5C 279.036,79.5323 280.869,75.5323 286.5,73.5 Z"/></g>
<g><path style="opacity:1" fill="#8f8f8f" d="M 326.5,74.5 C 318.167,74.5 309.833,74.5 301.5,74.5C 301.5,75.5 301.5,76.5 301.5,77.5C 304.833,77.5 308.167,77.5 311.5,77.5C 311.5,85.5 311.5,93.5 311.5,101.5C 310.508,94.0182 310.175,86.3516 310.5,78.5C 307.167,78.5 303.833,78.5 300.5,78.5C 300.5,76.8333 300.5,75.1667 300.5,73.5C 309.349,73.1736 318.016,73.507 326.5,74.5 Z"/></g>
<g><path style="opacity:1" fill="#2d2d2d" d="M 150.5,74.5 C 158.833,74.5 167.167,74.5 175.5,74.5C 175.5,75.5 175.5,76.5 175.5,77.5C 172.167,77.5 168.833,77.5 165.5,77.5C 165.5,85.5 165.5,93.5 165.5,101.5C 163.833,101.5 162.167,101.5 160.5,101.5C 160.5,93.8333 160.5,86.1667 160.5,78.5C 157.167,78.5 153.833,78.5 150.5,78.5C 150.5,77.1667 150.5,75.8333 150.5,74.5 Z"/></g>
<g><path style="opacity:1" fill="#6e6e6e" d="M 230.5,74.5 C 231.919,73.5489 233.585,73.2155 235.5,73.5C 235.825,80.6866 235.491,87.6866 234.5,94.5C 234.5,87.8333 234.5,81.1667 234.5,74.5C 233.167,74.5 231.833,74.5 230.5,74.5 Z"/></g>
<g><path style="opacity:1" fill="#949494" d="M 269.5,74.5 C 271.265,73.5386 273.265,73.2053 275.5,73.5C 275.827,83.015 275.494,92.3483 274.5,101.5C 274.5,92.5 274.5,83.5 274.5,74.5C 272.833,74.5 271.167,74.5 269.5,74.5 Z"/></g>
<g><path style="opacity:1" fill="#2d2d2d" d="M 326.5,74.5 C 326.5,75.8333 326.5,77.1667 326.5,78.5C 323.167,78.5 319.833,78.5 316.5,78.5C 316.5,86.1667 316.5,93.8333 316.5,101.5C 314.833,101.5 313.167,101.5 311.5,101.5C 311.5,93.5 311.5,85.5 311.5,77.5C 308.167,77.5 304.833,77.5 301.5,77.5C 301.5,76.5 301.5,75.5 301.5,74.5C 309.833,74.5 318.167,74.5 326.5,74.5 Z"/></g>
<g><path style="opacity:1" fill="#2a2a2a" d="M 210.5,74.5 C 212.167,74.5 213.833,74.5 215.5,74.5C 215.177,81.0221 215.51,87.3554 216.5,93.5C 220.241,98.3893 224.408,98.7227 229,94.5C 230.377,87.9236 230.877,81.2569 230.5,74.5C 231.833,74.5 233.167,74.5 234.5,74.5C 234.5,81.1667 234.5,87.8333 234.5,94.5C 234.094,98.0752 232.094,100.242 228.5,101C 223.163,102.143 218.163,101.476 213.5,99C 212.54,97.5806 211.707,96.0806 211,94.5C 210.5,87.8417 210.334,81.175 210.5,74.5 Z"/></g>
<g><path style="opacity:1" fill="#2c2c2c" d="M 269.5,74.5 C 271.167,74.5 272.833,74.5 274.5,74.5C 274.5,83.5 274.5,92.5 274.5,101.5C 272.833,101.5 271.167,101.5 269.5,101.5C 269.5,92.5 269.5,83.5 269.5,74.5 Z"/></g>
<g><path style="opacity:1" fill="#f7f7f7" d="M 248.5,77.5 C 251.807,77.0632 254.807,77.7298 257.5,79.5C 259.347,83.1428 258.347,85.4761 254.5,86.5C 252.167,86.5 249.833,86.5 247.5,86.5C 247.264,83.3915 247.597,80.3915 248.5,77.5 Z"/></g>
<g><path style="opacity:1" fill="#f7f7f7" d="M 188.5,77.5 C 193.194,76.7002 196.694,78.3669 199,82.5C 201.837,93.6529 197.671,98.4862 186.5,97C 182.695,92.9089 181.528,88.0755 183,82.5C 184.352,80.251 186.185,78.5844 188.5,77.5 Z"/></g>
<g><path style="opacity:1" fill="#a0a0a0" d="M 248.5,77.5 C 247.597,80.3915 247.264,83.3915 247.5,86.5C 249.833,86.5 252.167,86.5 254.5,86.5C 252.052,87.4731 249.385,87.8064 246.5,87.5C 245.931,83.6707 246.598,80.3373 248.5,77.5 Z"/></g>
<g><path style="opacity:1" fill="#2a9d4a" d="M 58.5,86.5 C 60.4168,89.331 62.0834,92.331 63.5,95.5C 60.5505,93.2725 58.8838,90.2725 58.5,86.5 Z"/></g>
<g><path style="opacity:1" fill="#259354" d="M 96.5,73.5 C 100.501,76.2624 103.834,79.0957 106.5,82C 106.167,82.3333 105.833,82.6667 105.5,83C 106.974,84.3161 108.641,85.3161 110.5,86C 110.167,86.3333 109.833,86.6667 109.5,87C 110.974,88.3161 112.641,89.3161 114.5,90C 114.167,90.3333 113.833,90.6667 113.5,91C 115.134,91.4935 116.801,91.6602 118.5,91.5C 114.688,101.306 108.355,108.973 99.5,114.5C 96.7172,113.841 94.0505,112.675 91.5,111C 92.1667,110.667 92.8333,110.333 93.5,110C 90.5165,107.174 87.1832,104.841 83.5,103C 84.1667,102.667 84.8333,102.333 85.5,102C 82.9319,100.269 80.9319,98.1023 79.5,95.5C 87.5503,90.0937 93.217,82.7604 96.5,73.5 Z"/></g>
<g><path style="opacity:1" fill="#258543" d="M 128.5,57.5 C 131.922,80.2562 125.255,99.7562 108.5,116C 107.906,116.464 107.239,116.631 106.5,116.5C 105.508,116.672 104.842,116.338 104.5,115.5C 116.028,104.441 123.362,91.1079 126.5,75.5C 127.296,69.6496 127.963,63.6496 128.5,57.5 Z"/></g>
<g><path style="opacity:1" fill="#30b266" d="M 16.5,33.5 C 14.9451,36.9396 13.1118,40.2729 11,43.5C 1.90316,69.0986 6.40316,91.9319 24.5,112C 50.3938,132.685 77.0604,133.851 104.5,115.5C 104.842,116.338 105.508,116.672 106.5,116.5C 94.7664,127.284 80.7664,132.284 64.5,131.5C 40.4978,130.084 22.3311,119.084 10,98.5C 0.867508,79.7856 0.200841,60.7856 8,41.5C 9.60911,38.5932 11.4424,35.9266 13.5,33.5C 14.4584,33.0472 15.2917,32.3805 16,31.5C 16.4643,32.0944 16.631,32.7611 16.5,33.5 Z"/></g>
<g><path style="opacity:1" fill="#29a15d" d="M 72.5,67.5 C 72.8333,67.5 73.1667,67.5 73.5,67.5C 68.9888,75.8796 67.1554,84.8796 68,94.5C 68.2189,95.938 68.7189,97.2713 69.5,98.5C 72.9294,97.7494 76.2627,96.7494 79.5,95.5C 80.9319,98.1023 82.9319,100.269 85.5,102C 84.8333,102.333 84.1667,102.667 83.5,103C 87.1832,104.841 90.5165,107.174 93.5,110C 92.8333,110.333 92.1667,110.667 91.5,111C 94.0505,112.675 96.7172,113.841 99.5,114.5C 92.6508,120.346 84.6508,123.679 75.5,124.5C 74.6676,123.671 75.001,122.838 76.5,122C 75.0257,120.684 73.359,119.684 71.5,119C 72.1667,118.333 72.8333,117.667 73.5,117C 71.705,116.743 69.705,116.077 67.5,115C 67.8333,114.667 68.1667,114.333 68.5,114C 67.0257,112.684 65.359,111.684 63.5,111C 64.1667,110.333 64.8333,109.667 65.5,109C 63.705,108.743 61.705,108.077 59.5,107C 59.8333,106.667 60.1667,106.333 60.5,106C 59.0257,104.684 57.359,103.684 55.5,103C 58.0281,100.925 57.8614,100.092 55,100.5C 50.775,98.7525 51.275,97.4192 56.5,96.5C 59.0726,97.6448 61.7393,98.1448 64.5,98C 63.7476,97.3292 63.4142,96.4959 63.5,95.5C 64.7498,95.5774 65.5831,96.244 66,97.5C 66.3333,91.8333 66.6667,86.1667 67,80.5C 67.4892,75.4715 69.3226,71.1382 72.5,67.5 Z"/></g>
<g><path style="opacity:1" fill="#2bac64" d="M 12.5,47.5 C 20.3893,53.2166 27.5559,59.8832 34,67.5C 34.1829,64.6353 34.6829,61.9686 35.5,59.5C 35.3924,63.247 35.8924,66.9137 37,70.5C 39.9116,82.0452 46.4116,90.7118 56.5,96.5C 51.275,97.4192 50.775,98.7525 55,100.5C 57.8614,100.092 58.0281,100.925 55.5,103C 57.359,103.684 59.0257,104.684 60.5,106C 60.1667,106.333 59.8333,106.667 59.5,107C 61.705,108.077 63.705,108.743 65.5,109C 64.8333,109.667 64.1667,110.333 63.5,111C 65.359,111.684 67.0257,112.684 68.5,114C 68.1667,114.333 67.8333,114.667 67.5,115C 69.705,116.077 71.705,116.743 73.5,117C 72.8333,117.667 72.1667,118.333 71.5,119C 73.359,119.684 75.0257,120.684 76.5,122C 75.001,122.838 74.6676,123.671 75.5,124.5C 45.8628,127.758 24.6961,115.758 12,88.5C 7.18784,74.6259 7.35451,60.9592 12.5,47.5 Z"/></g>
</svg>
